<?xml version="1.0" encoding="UTF-8" standalone="no"?>
<!DOCTYPE svg PUBLIC "-//W3C//DTD SVG 1.1//EN" "http://www.w3.org/Graphics/SVG/1.1/DTD/svg11.dtd">
<svg width="100%" height="100%" viewBox="0 0 1234 1350" version="1.1" xmlns="http://www.w3.org/2000/svg" xmlns:xlink="http://www.w3.org/1999/xlink" xml:space="preserve" xmlns:serif="http://www.serif.com/" style="fill-rule:evenodd;clip-rule:evenodd;stroke-linejoin:round;stroke-miterlimit:2;">
    <g transform="matrix(1,0,0,1,-8536.83,-3163.97)">
        <g id="Page-9" serif:id="Page 9" transform="matrix(4.16667,0,0,4.16667,7972.44,2657.48)">
            <rect x="0" y="0" width="566.929" height="566.929" style="fill:none;"/>
            <g id="Layer-1" serif:id="Layer 1">
                <g transform="matrix(1,0,0,1,353.288,287.105)">
                    <path d="M0,82.767L-19.652,82.767C-25.005,82.767 -29.466,86.665 -30.556,91.984C-32.539,101.667 -38.635,115.486 -57.271,115.486L-148.035,115.486C-163.301,115.486 -175.692,102.924 -175.692,87.419L-175.692,-4.691C-175.692,-20.183 -163.314,-32.757 -148.035,-32.757L-34.868,-32.757C-28.623,-32.757 -23.555,-37.901 -23.555,-44.238L-23.555,-64.018C-23.555,-70.356 -28.623,-75.499 -34.868,-75.499L-148.035,-75.499C-186.584,-75.499 -217.834,-43.785 -217.834,-4.665L-217.834,87.444C-217.834,126.552 -186.596,158.266 -148.048,158.266L-57.297,158.266C-57.288,158.266 -57.28,158.262 -57.271,158.26C-57.263,158.257 -57.254,158.253 -57.245,158.253C-6.206,158.245 7.497,117.848 11.177,96.159C12.366,89.142 7.013,82.767 0,82.767" style="fill:rgb(4,85,202);fill-rule:nonzero;"/>
                </g>
                <g transform="matrix(1,0,0,1,361.689,355.322)">
                    <path d="M0,-233.764L-90.764,-233.764C-144.405,-233.764 -156.882,-192.305 -159.745,-170.538C-160.649,-163.635 -155.371,-157.523 -148.519,-157.523L-129.213,-157.523C-123.737,-157.523 -118.892,-161.472 -118.074,-166.967C-116.599,-176.863 -110.949,-191.01 -90.764,-191.01L0,-191.01C15.278,-191.01 27.657,-178.448 27.657,-162.943L27.657,-70.808C27.657,-54.285 13.89,-42.741 -5.824,-42.741L-105.993,-42.741C-112.238,-42.741 -117.306,-37.598 -117.306,-31.26L-117.306,-11.48C-117.306,-5.143 -112.238,0 -105.993,0L-5.836,0C37.272,0 69.786,-30.456 69.786,-70.833L69.786,-162.943C69.786,-202.051 38.548,-233.764 0,-233.764" style="fill:rgb(4,85,202);fill-rule:nonzero;"/>
                </g>
            </g>
        </g>
    </g>
</svg>
