<svg width="167" height="40" viewBox="0 0 167 40" fill="none" xmlns="http://www.w3.org/2000/svg">
<path d="M29.3044 28.5669C29.9041 28.5669 30.3464 29.1527 30.2073 29.7628V29.7671C29.1605 33.8426 25.6081 36.687 21.5679 36.687H16.2408C11.8179 36.687 8.23242 32.9376 8.23242 28.3124V21.5884C8.23242 17.0609 11.7422 13.3906 16.0717 13.3906H27.2485C27.7612 13.3906 28.1768 13.8252 28.1768 14.3612V16.8163C28.1768 17.3523 27.7612 17.7869 27.2485 17.7869H16.0718C14.0641 17.7869 12.4366 19.4889 12.4366 21.5884V28.3169C12.4366 30.5115 14.1379 32.2907 16.2366 32.2907H21.5679C24.441 32.2907 25.5761 30.2202 25.9669 29.167C26.1028 28.8006 26.4488 28.5669 26.8246 28.5669H29.3044Z" fill="#0455CA"/>
<path d="M39.1398 11.1115V18.2781C39.1398 23.0007 35.4788 26.8292 30.9627 26.8292H19.8909C19.3783 26.8292 18.9626 26.3946 18.9626 25.8584V23.404C18.9626 22.868 19.3783 22.4334 19.8909 22.4334H30.9627C33.1573 22.4334 34.9362 20.573 34.9362 18.2783V11.1115C34.9362 9.35287 33.5728 7.92711 31.891 7.92711H25.048C22.4778 7.92711 21.5475 9.83032 21.2532 10.9359C21.141 11.3571 20.7775 11.6483 20.3593 11.6483H17.9574C17.3681 11.6483 16.9254 11.0833 17.0478 10.4804C17.5085 8.21217 19.2145 3.53125 25.048 3.53125H31.891C35.8944 3.53125 39.1398 6.92513 39.1398 11.1115Z" fill="#0455CA"/>
<path d="M67.9142 15.0718C67.6887 14.3078 67.3797 13.6214 66.9873 13.013C66.595 12.4046 66.1259 11.8836 65.5802 11.4496C65.0342 11.0158 64.4099 10.6878 63.7062 10.4661C63.0026 10.2445 62.2357 10.1335 61.406 10.1335C59.9175 10.1335 58.5916 10.5252 57.428 11.308C56.2644 12.0911 55.3511 13.2394 54.688 14.7533C54.025 16.2674 53.6935 18.1093 53.6935 20.2787C53.6935 22.4673 54.0228 24.3208 54.6813 25.8395C55.3396 27.3583 56.2553 28.5116 57.428 29.299C58.6005 30.0868 59.9626 30.4807 61.5143 30.4807C62.9214 30.4807 64.1413 30.1976 65.1742 29.6316C66.207 29.0656 67.003 28.2615 67.5624 27.2191C68.1217 26.1769 68.4014 24.9529 68.4014 23.5473L69.538 23.7313H62.0148V19.628H73.2589V23.1086C73.2589 25.5896 72.7535 27.7357 71.7435 29.5467C70.7331 31.3578 69.3439 32.7516 67.576 33.728C65.8079 34.7042 63.7782 35.1924 61.4872 35.1924C58.9343 35.1924 56.6949 34.5909 54.7692 33.3883C52.8433 32.1855 51.3412 30.4735 50.2634 28.2521C49.1855 26.0305 48.6465 23.3916 48.6465 20.3353C48.6465 17.996 48.9645 15.9066 49.6004 14.0671C50.2364 12.2277 51.1272 10.6641 52.2729 9.37655C53.4183 8.08909 54.7624 7.10808 56.305 6.4335C57.8474 5.75918 59.5252 5.42188 61.3384 5.42188C62.8717 5.42188 64.3014 5.65527 65.6276 6.1223C66.9536 6.5892 68.1327 7.25189 69.1658 8.11019C70.1985 8.96879 71.0487 9.98743 71.7164 11.1665C72.3838 12.3459 72.8212 13.6475 73.0289 15.0718H67.9142Z" fill="#0455CA"/>
<path d="M84.7084 31.119C85.8088 31.119 86.7289 30.8005 87.4687 30.1638C88.2082 29.5271 88.7609 28.6711 89.1261 27.5957C89.4915 26.5204 89.6742 25.3225 89.6742 24.0018C89.6742 22.6717 89.4915 21.4668 89.1261 20.3866C88.7609 19.3065 88.2082 18.4459 87.4687 17.8043C86.7289 17.1629 85.8088 16.8421 84.7084 16.8421C83.5807 16.8421 82.6451 17.1629 81.9009 17.8043C81.1566 18.4459 80.6018 19.3065 80.2366 20.3866C79.8712 21.4668 79.6885 22.6717 79.6885 24.0018C79.6885 25.3225 79.8712 26.5204 80.2366 27.5957C80.6018 28.6711 81.1566 29.5271 81.9009 30.1638C82.6451 30.8005 83.5807 31.119 84.7084 31.119ZM84.6814 35.2223C82.6518 35.2223 80.8928 34.7554 79.4043 33.8216C77.916 32.8875 76.7636 31.5813 75.9472 29.9021C75.1308 28.2232 74.7227 26.2611 74.7227 24.0158C74.7227 21.7709 75.1308 19.8043 75.9472 18.1156C76.7636 16.4272 77.916 15.1159 79.4043 14.1819C80.8928 13.2481 82.6518 12.7812 84.6814 12.7812C86.7111 12.7812 88.4699 13.2481 89.9583 14.1819C91.4466 15.1159 92.5989 16.4272 93.4154 18.1156C94.2316 19.8043 94.64 21.7709 94.64 24.0158C94.64 26.2611 94.2316 28.2232 93.4154 29.9021C92.5989 31.5813 91.4466 32.8875 89.9583 33.8216C88.4699 34.7554 86.7111 35.2223 84.6814 35.2223Z" fill="#0455CA"/>
<path d="M114.295 13.0625L106.894 34.7961H101.481L94.0801 13.0625H99.303L104.079 29.207H104.296L109.086 13.0625H114.295Z" fill="#0455CA"/>
<path d="M123.83 35.2223C121.747 35.2223 119.949 34.7673 118.438 33.8568C116.927 32.9467 115.766 31.6545 114.954 29.9799C114.142 28.3057 113.736 26.3317 113.736 24.0583C113.736 21.8227 114.145 19.8584 114.961 18.1652C115.777 16.472 116.921 15.1512 118.391 14.2033C119.861 13.2552 121.589 12.7812 123.573 12.7812C124.854 12.7812 126.065 12.996 127.206 13.425C128.347 13.8543 129.358 14.5169 130.237 15.413C131.116 16.3093 131.809 17.4484 132.314 18.8302C132.819 20.2122 133.072 21.8559 133.072 23.7612V25.3318H116.037V21.8793H128.377C128.367 20.8984 128.165 20.0235 127.768 19.2547C127.371 18.486 126.818 17.8798 126.11 17.4364C125.402 16.9931 124.579 16.7714 123.641 16.7714C122.64 16.7714 121.76 17.0238 121.002 17.5283C120.245 18.0331 119.656 18.6935 119.237 19.5092C118.817 20.3254 118.603 21.2192 118.594 22.1906V25.2044C118.594 26.4686 118.815 27.5511 119.257 28.4518C119.699 29.3527 120.317 30.0413 121.111 30.5176C121.904 30.994 122.834 31.2322 123.898 31.2322C124.61 31.2322 125.255 31.126 125.833 30.9137C126.41 30.7016 126.911 30.3881 127.335 29.9728C127.759 29.558 128.079 29.0438 128.295 28.4305L132.869 28.9682C132.58 30.2324 132.032 31.3337 131.225 32.2721C130.417 33.2109 129.387 33.9372 128.133 34.4512C126.879 34.9653 125.445 35.2223 123.83 35.2223Z" fill="#0455CA"/>
<path d="M134.924 34.7948V13.0612H139.673V16.6834H139.89C140.269 15.429 140.92 14.4597 141.845 13.7758C142.769 13.0919 143.827 12.75 145.018 12.75C145.288 12.75 145.593 12.7618 145.931 12.7852C146.269 12.8088 146.551 12.8443 146.777 12.8912V17.6031C146.569 17.5278 146.242 17.4595 145.796 17.398C145.349 17.3368 144.919 17.3059 144.504 17.3059C143.611 17.3059 142.81 17.5065 142.102 17.9074C141.394 18.3084 140.837 18.8625 140.431 19.5699C140.025 20.2774 139.822 21.0934 139.822 22.0178V34.7948H134.924Z" fill="#0455CA"/>
</svg>
