<svg width="48" height="40" viewBox="0 0 48 40" fill="none" xmlns="http://www.w3.org/2000/svg">
<path d="M29.3044 28.5669C29.9041 28.5669 30.3464 29.1527 30.2073 29.7628V29.7671C29.1605 33.8426 25.6081 36.687 21.5679 36.687H16.2408C11.8179 36.687 8.23242 32.9376 8.23242 28.3124V21.5884C8.23242 17.0609 11.7422 13.3906 16.0717 13.3906H27.2485C27.7612 13.3906 28.1768 13.8252 28.1768 14.3612V16.8163C28.1768 17.3523 27.7612 17.7869 27.2485 17.7869H16.0718C14.0641 17.7869 12.4366 19.4889 12.4366 21.5884V28.3169C12.4366 30.5115 14.1379 32.2907 16.2366 32.2907H21.5679C24.441 32.2907 25.5761 30.2202 25.9669 29.167C26.1028 28.8006 26.4488 28.5669 26.8246 28.5669H29.3044Z" fill="#0455CA"/>
<path d="M39.1398 11.1115V18.2781C39.1398 23.0007 35.4788 26.8292 30.9627 26.8292H19.8909C19.3783 26.8292 18.9626 26.3946 18.9626 25.8584V23.404C18.9626 22.868 19.3783 22.4334 19.8909 22.4334H30.9627C33.1573 22.4334 34.9362 20.573 34.9362 18.2783V11.1115C34.9362 9.35287 33.5728 7.92711 31.891 7.92711H25.048C22.4778 7.92711 21.5475 9.83032 21.2532 10.9359C21.141 11.3571 20.7775 11.6483 20.3593 11.6483H17.9574C17.3681 11.6483 16.9254 11.0833 17.0478 10.4804C17.5085 8.21217 19.2145 3.53125 25.048 3.53125H31.891C35.8944 3.53125 39.1398 6.92513 39.1398 11.1115Z" fill="#0455CA"/>
</svg>
